<svg xmlns="http://www.w3.org/2000/svg" viewBox="0 0 236 236"><defs><style>.cls-1{fill:#162623;}.cls-2{fill:#f0f4f7;}</style></defs><g id="Capa_2" data-name="Capa 2"><g id="Capa_1-2" data-name="Capa 1"><circle class="cls-1" cx="118" cy="118" r="118"/><path class="cls-2" d="M92.89,127.28,51,112.62c-1.49-.52-2.92-1.15-4.39-1.71C39,108,36,102,38.76,94.33a6.74,6.74,0,0,1,3.66-3.5C58.66,84.9,75,79.16,91.27,73.41a11.06,11.06,0,0,1,2.63,0c0,3.82.66,7.77-.24,11.3-.57,2.24-3.17,4.76-5.44,5.61C79.74,93.5,71,96,62.43,100.45c6.73,2.19,13.44,4.42,20.19,6.55C95.13,110.93,96.06,112.63,92.89,127.28Z"/><path class="cls-2" d="M143.1,107.39q21,7.33,41.85,14.65c1.48.52,2.92,1.15,4.39,1.7,7.69,2.9,10.7,9,7.92,16.59a6.76,6.76,0,0,1-3.67,3.5c-16.24,5.93-32.54,11.66-48.84,17.41a10.15,10.15,0,0,1-2.64,0c0-3.82-.66-7.76.25-11.3.58-2.23,3.17-4.75,5.44-5.6,8.48-3.18,17.19-5.72,25.79-10.13-6.73-2.19-13.44-4.42-20.19-6.55C140.86,123.72,139.94,122,143.1,107.39Z"/><rect class="cls-2" x="66.44" y="109.5" width="102.99" height="17" rx="8.5" transform="translate(-33.88 187.17) rotate(-69.51)"/></g></g></svg>