<svg xmlns="http://www.w3.org/2000/svg" viewBox="0 0 1528.95 223.96"><defs><style>.cls-1{fill:#295254;}</style></defs><g id="Capa_2" data-name="Capa 2"><g id="Capa_1-2" data-name="Capa 1"><path class="cls-1" d="M532.66.09V80c2.93-1.8,4.85-3,6.74-4.14,30.23-19.08,69-11.61,87.47,16.89a61.9,61.9,0,0,1,10.34,32.92c.44,29.82.18,59.65.34,89.48,0,3.54-1.25,4.57-4.65,4.53-13.16-.14-26.32-.17-39.48,0-3.84.06-4.79-1.37-4.77-5q.2-34.49,0-69a71.77,71.77,0,0,0-1.19-13.9c-4.32-21.33-24.14-25-37.11-19.47-5.78,2.47-10.83,7-15.66,11.17-1.61,1.4-2.05,4.79-2.06,7.27q-.21,41.49,0,83c0,4.55-1.23,6-5.86,5.93-13-.29-26-.22-39,0-3.73,0-4.84-1.14-4.83-4.86q.15-105,0-209.95c0-3.58.77-5,4.68-4.93C502.29.22,516.93.09,532.66.09Z"/><path class="cls-1" d="M780.29,219.67c-.29-2.87-.5-5-.72-7.15-41.05,18.33-76.89,14.27-103.45-24.84-17.72-26.1-16.13-63.92,2.33-89.4,11.55-16,26.52-27,46.39-30.3,19.16-3.17,37.33-.16,54.64,10.09.28-3,.48-5.08.72-7.59h48.71c.1,1.58.31,3.18.31,4.78,0,46.31-.05,92.61.11,138.91,0,4.47-1.32,5.66-5.65,5.59C809.38,219.52,795.08,219.67,780.29,219.67Zm-.39-74.76c0-6.82.11-13.66-.08-20.48a8.45,8.45,0,0,0-1.67-4.92c-11.44-13.7-35-17-49.5-6.77-12.95,9.13-17.87,22.16-16,37.47,1.82,14.69,9.71,25.71,24,30.39,15.32,5,29.24,1.18,40.86-10a9,9,0,0,0,2.28-5.66C780.07,158.24,779.9,151.57,779.9,144.91Z"/><path class="cls-1" d="M1160.48,77.39c.24-2.37.46-4.49.74-7.32h12.85c10.32,0,20.65.11,31-.07,3.38-.06,4.73.89,4.72,4.46q-.12,70.46,0,140.9c0,2.35-.23,4.32-3.38,4.29-14.65-.11-29.3-.14-43.95-.22-.3,0-.59-.28-1.17-.56q-.33-2.9-.71-6.26c-44.23,19.24-81.63,13.27-106.81-30.77-15.84-27.7-11-65.44,9.75-88.81C1091.13,61.83,1124.08,60.52,1160.48,77.39Zm.37,67.62c0-6.66.18-13.33-.11-20a9.79,9.79,0,0,0-2.32-6.15c-11-10.64-24.05-14.71-38.93-10.74-20,5.33-31,27.64-24.57,48.79,8.07,26.58,41,34.44,62.28,14.69,2-1.86,3.25-5.31,3.49-8.13C1161.21,157.37,1160.85,151.18,1160.85,145Z"/><path class="cls-1" d="M1462,223V210.69c0-15.66,0-31.32,0-47,0-8.66,1.32-8.13-7.9-8.14-18.32,0-36.65-.15-55,.09-4.47.06-5.68-1.38-5.64-5.68q.3-27.73,0-55.48c0-4.48,1.42-5.56,5.74-5.51,18.82.23,37.65.1,56.48.1h6.13V22.31H1529V223Z"/><path class="cls-1" d="M864.16,219.67V70.49H913c.26,2.71.53,5.57.88,9.33,2.2-1.36,3.84-2.33,5.44-3.36,29.31-18.8,66.3-13.25,86,13a63.82,63.82,0,0,1,12.85,38.15c.45,29.15.12,58.31.3,87.46,0,3.92-1.46,4.74-5,4.69-12.83-.15-25.66-.22-38.48,0-4.42.09-5.74-1.37-5.7-5.71.17-22.32.14-44.65,0-67a84.33,84.33,0,0,0-1.06-14.91c-4.19-22.5-26.09-25.51-39.19-19a51.09,51.09,0,0,0-12.35,9.12,11.94,11.94,0,0,0-3.21,7.78c-.23,27.65-.14,55.3-.14,83,0,6.64,0,6.65-6.87,6.66H864.16Z"/><path class="cls-1" d="M347.49,159.41c2.59,13.3,13,23,26,24.46,11,1.21,21.76,1,29.72-8.68a4.43,4.43,0,0,1,3-1.34c15.31-.08,30.61,0,46.7,0-.53,2.14-.8,3.85-1.36,5.45-7.38,21-22.89,33.55-43.46,40a90.38,90.38,0,0,1-57.88-.73c-29.56-10.36-46.65-31.25-50.48-62.62-2.43-19.8.53-38.58,11.55-55.44,13.62-20.82,33.67-31.19,58-33.29,20.63-1.78,40.15,1.73,57.07,14.76,17.87,13.75,27.11,32,28,54.43.22,5.82-.23,11.67,0,17.48.2,4.34-1.28,5.7-5.7,5.67-31.65-.17-63.29-.09-94.94-.09Zm60.27-28.91c.72-15.36-12.64-26.45-30.81-26-16.08.41-30.37,13-29.18,26Z"/><path class="cls-1" d="M157.6,130.84H136.9c-7.16,0-14.33.15-21.48-.14-1.55-.07-3.84-1.35-4.43-2.68-6.5-14.6-16.65-20.65-33.38-19.54a32.42,32.42,0,0,0-28.95,23.8,45.52,45.52,0,0,0,0,25.14c7.51,25.85,37,29.78,51.86,18.33,4.36-3.34,6.85-9.08,10.34-13.62.94-1.23,2.4-2.93,3.64-2.95,14.14-.21,28.28-.13,43.43-.13-.72,4.19-1.11,8.07-2.07,11.8-4.91,19-16.26,33.53-33.4,42.22-31.45,16-62.92,14.68-92-5.74-25-17.55-32.64-43.16-30-72.81,3.09-34.28,31.08-60.61,62.24-66,33-5.67,61.94,1.55,83.16,29.43C153,107.26,156.84,118,157.6,130.84Z"/><path class="cls-1" d="M233.17,84.29c10.22-4.72,19.73-9.75,29.73-13.47,5.62-2.08,12-2.13,18.12-2.75,1.06-.11,3.3,1.5,3.31,2.35.21,14.45.15,28.91.15,43.25-8.48,1.64-16.74,2.29-24.28,5-8,2.83-15.43,7.49-23,11.52-3.25,1.72-4.11,4.64-4.09,8.37.16,25.16,0,50.32.17,75.48,0,4.23-1,5.88-5.53,5.78-13.16-.29-26.33-.2-39.49-.05-3.49,0-4.59-1.18-4.58-4.63q.12-70.47.07-141a38.75,38.75,0,0,1,.47-4.06h10.94c11.16,0,22.33.12,33.49-.07,3.5-.06,4.81,1.07,4.59,4.56S233.17,81.5,233.17,84.29Z"/><path class="cls-1" d="M1325.16,88V22.37H1392V88Z"/><path class="cls-1" d="M1392,223.19h-66.63a29.56,29.56,0,0,1-.53-3.83c0-19.32,0-38.64-.06-58,0-2.95.47-4.6,4-4.58,20.15.14,40.3.07,60.45.1a21,21,0,0,1,2.74.39Z"/></g></g></svg>