<svg xmlns="http://www.w3.org/2000/svg" viewBox="0 0 887 236"><defs><style>.cls-1{fill:#f0f4f7;}.cls-2{fill:#162623;}</style></defs><g id="Capa_2" data-name="Capa 2"><g id="Capa_1-2" data-name="Capa 1"><path class="cls-1" d="M118,0H810.77A76.23,76.23,0,0,1,887,76.23v83.53A76.23,76.23,0,0,1,810.77,236H118a0,0,0,0,1,0,0V0A0,0,0,0,1,118,0Z"/><path d="M356.83,95.53q8.91,6.84,8.92,25.33,0,18-8.92,25.43t-21.65,7.4H319.61v-65h13.58Q347.92,88.69,356.83,95.53Zm-28.26.33v50.76h7.27q9.06,0,14.72-5.57t5.66-20.19q0-10.29-2.93-15.8t-7.45-7.36a28.18,28.18,0,0,0-10.66-1.84Z"/><path d="M387.64,81.8A5.76,5.76,0,0,1,389.33,86a5.61,5.61,0,0,1-1.69,4.2,6.11,6.11,0,0,1-4.44,1.65,6,6,0,0,1-4.34-1.65,5.61,5.61,0,0,1-1.7-4.2,5.77,5.77,0,0,1,1.7-4.24,5.89,5.89,0,0,1,4.34-1.7A6,6,0,0,1,387.64,81.8Zm0,22.17v49.72H379V104Z"/><path d="M427.26,104.25A27.55,27.55,0,0,1,435,108.5L431.32,114a30.73,30.73,0,0,0-6.46-3.21,20.11,20.11,0,0,0-6.47-1,11.35,11.35,0,0,0-6.69,1.74,5.9,5.9,0,0,0-.15,9.48c1.54,1.14,4.33,2.24,8.35,3.31q8.31,2.07,12.41,5.66a12.34,12.34,0,0,1,4.11,9.81A12.74,12.74,0,0,1,430.71,151a24.24,24.24,0,0,1-13.92,3.87q-11.32,0-18.78-6.51l4.63-5.29a22.5,22.5,0,0,0,14,4.81,13.33,13.33,0,0,0,7.79-2,6.44,6.44,0,0,0,2.87-5.52,7.32,7.32,0,0,0-1-4.11,8.41,8.41,0,0,0-3.59-2.73,48.74,48.74,0,0,0-7.45-2.5q-7.94-2.09-11.47-5.57a11.94,11.94,0,0,1-3.54-8.87,11.59,11.59,0,0,1,2.32-7,15,15,0,0,1,6.41-4.91,23.36,23.36,0,0,1,9.2-1.74A27.73,27.73,0,0,1,427.26,104.25Z"/><path d="M485.1,131.8H453.4q.57,8.22,4.15,12.08a12,12,0,0,0,9.25,3.87,20,20,0,0,0,6.6-1,26.55,26.55,0,0,0,6.32-3.3l3.78,5.19a27.51,27.51,0,0,1-17.36,6.23q-10.38,0-16.18-6.8t-5.81-18.68a35.54,35.54,0,0,1,2.5-13.73,21.56,21.56,0,0,1,7.17-9.38,18.18,18.18,0,0,1,11-3.4q9.9,0,15.19,6.51t5.28,18C485.29,128.82,485.23,130.29,485.1,131.8Zm-8.4-7q0-7.35-2.92-11.23T465,109.73q-10.65,0-11.6,15.66h23.3Z"/><path d="M532.23,106.9q3.82,4,3.82,11.13v35.66h-8.68V119.26c0-3.53-.66-6-2-7.46a7.55,7.55,0,0,0-5.85-2.17,11.32,11.32,0,0,0-7,2.27,23.43,23.43,0,0,0-5.66,6.51v35.28h-8.68V104h7.45l.75,7.36A19.78,19.78,0,0,1,513,105.1a16.94,16.94,0,0,1,8.64-2.26Q528.4,102.84,532.23,106.9ZM519.59,91.14a21.59,21.59,0,0,1-3.26-1.89,16.15,16.15,0,0,0-2.4-1.51,4.74,4.74,0,0,0-2-.47,3.78,3.78,0,0,0-2.64,1,12.45,12.45,0,0,0-2.36,3.3L501.61,89a18.32,18.32,0,0,1,4.39-6,8.71,8.71,0,0,1,5.9-2.26,7.51,7.51,0,0,1,3.39.7,26.61,26.61,0,0,1,3.21,1.94l1.18.75a9.3,9.3,0,0,0,1.65.85,4.24,4.24,0,0,0,1.51.28,3.77,3.77,0,0,0,2.55-1A13.81,13.81,0,0,0,527.84,81l5.29,2.64a15.72,15.72,0,0,1-4.44,6,9.21,9.21,0,0,1-5.85,2.08A7.8,7.8,0,0,1,519.59,91.14Z"/><path d="M587.1,146.57a6.23,6.23,0,0,0,3.11,2.22l-2,6a13.35,13.35,0,0,1-6.23-2.17,10,10,0,0,1-3.49-5.29q-5,7.45-14.81,7.46-7.37,0-11.61-4.16a14.48,14.48,0,0,1-4.24-10.85q0-7.92,5.7-12.17t16.18-4.24h7.65v-3.68q0-5.28-2.55-7.55T567,109.92a43.81,43.81,0,0,0-13.4,2.64l-2.17-6.32a49.91,49.91,0,0,1,17.17-3.4q8.77,0,13.12,4.29t4.34,12.22v22.74A7.72,7.72,0,0,0,587.1,146.57Zm-9.72-6V129.16h-6.51q-13.79,0-13.78,10.19,0,4.44,2.17,6.7t6.42,2.27Q573.14,148.32,577.38,140.58Z"/><path d="M637,106.9q3.82,4,3.82,11.13v35.66H632.1V119.26c0-3.53-.66-6-2-7.46a7.55,7.55,0,0,0-5.85-2.17,11.32,11.32,0,0,0-7,2.27,23.43,23.43,0,0,0-5.66,6.51v35.28H603V104h7.45l.75,7.36a19.78,19.78,0,0,1,6.56-6.23,16.94,16.94,0,0,1,8.64-2.26Q633.13,102.84,637,106.9Z"/><path d="M695.79,84v69.72h-7.64l-.85-6.88a18,18,0,0,1-6.14,5.89,17.07,17.07,0,0,1-22-4.86q-4.95-7-5-18.77a36.66,36.66,0,0,1,2.36-13.59,21,21,0,0,1,6.79-9.29,16.77,16.77,0,0,1,10.38-3.35,17.84,17.84,0,0,1,13.4,6.13v-26ZM681.64,146.1a21.38,21.38,0,0,0,5.47-5.52V116.24a18.78,18.78,0,0,0-5.24-4.86,12.06,12.06,0,0,0-6.27-1.65,10.07,10.07,0,0,0-8.92,4.81q-3.16,4.81-3.16,14.34t2.93,14.34a9.29,9.29,0,0,0,8.39,4.72A12.2,12.2,0,0,0,681.64,146.1Z"/><path d="M747.73,109.82q5.81,7,5.8,19a33.08,33.08,0,0,1-2.64,13.63,20.73,20.73,0,0,1-7.64,9.15,21.33,21.33,0,0,1-11.89,3.26q-10.47,0-16.32-7t-5.85-19a33,33,0,0,1,2.64-13.63,20.76,20.76,0,0,1,7.64-9.16,21.47,21.47,0,0,1,12-3.25Q741.94,102.84,747.73,109.82Zm-29.2,19.06q0,19,12.83,19t12.83-19.05q0-19-12.74-19Q718.52,109.82,718.53,128.88Z"/><circle class="cls-2" cx="118" cy="118" r="118"/><path class="cls-1" d="M79,183c5.46-7.88,10.24-15.54,15.83-22.57,4-5,9.65-5,15.14-2.22,5.67,2.86,5.54,8,4.41,13.11C111.22,185.73,96,191.24,79,183Z"/><rect class="cls-1" x="78.93" y="90.04" width="106.46" height="19.14" rx="9.57" transform="translate(-7.41 188.54) rotate(-69.51)"/></g></g></svg>