<svg xmlns="http://www.w3.org/2000/svg" viewBox="0 0 1376.71 555.11"><defs><style>.cls-1{fill:#295254;}</style></defs><g id="Capa_2" data-name="Capa 2"><g id="Capa_1-2" data-name="Capa 1"><path class="cls-1" d="M0,268.6c6.39-30,16.52-57.89,39.46-80.13,62.66-60.7,165.34-43,204.34,37.28-25.05,23-50.35,46.67-76.25,69.64-3.06,2.71-9.36,2.38-14.17,2.41-32.75.19-65.51.1-98.3.1.92,24.86,26.53,50.67,55.73,57.27,26.28,5.94,49.21-.66,68.9-18.77Q260.92,261.65,342,186.8c49.52-45.9,127.63-45.91,176.3.29,48.83,46.36,53.63,122,10.51,172.7C500.47,393.12,464,407.7,420.37,405.62c-10.81-.52-16.59-3.41-15.45-15.72,1-11.21.22-22.59.22-34.1,14.18,0,27.7,1.81,40.57-.35,33.74-5.65,57.91-32.24,63-66.84,4.53-30.61-12.32-63.09-40.73-78.48-28.15-15.26-61.58-11.16-87.12,12.07-53.31,48.51-106.07,97.64-159.25,146.3C183.28,403.61,138.46,415.1,89,399,40.47,383.27,11.88,348.37,2.62,298A72.36,72.36,0,0,0,0,289.49Zm54.67-15.43c26.94,0,51.27-2,75.12.53,26.43,2.8,40.6-12.41,56.25-29.78-22.83-21.23-48.22-29-77.44-21C83.2,209.73,65.82,225.82,54.67,253.17Z"/><path class="cls-1" d="M608.86,555.11c.14-90.94.06-181.88.5-272.81.31-63.48,39.38-113.49,98.6-127.35,55.42-13,112.67,11.55,140.67,60.24a126.35,126.35,0,0,1-18.17,150.39c-39.07,40.9-101.77,51.2-152.33,25-4.81-2.5-9.52-5.19-16.31-8.89-.35,6.68-.84,11.87-.85,17.06-.06,46.22,0,92.44-.09,138.65,0,5.91-.83,11.81-1.28,17.72ZM737.63,199.74c-43.42-.11-79.11,35.24-79.14,78.38s35.41,78.53,78.93,78.51,79.34-35.39,79.47-78.33C817,235.57,781,199.84,737.63,199.74Z"/><path class="cls-1" d="M1274.44,0c-.08,91.47-.58,182.94-.07,274.4.26,46.17,35.72,80.27,82.06,81,6.4.09,12.79,0,20.28,0v47.72c-78.22,14.83-151.92-47.33-152.52-128.69-.63-85-.14-170-.16-255,0-6.45-.22-12.91-.33-19.37Z"/><path class="cls-1" d="M1172.72,277.28c.19,70.7-57.59,128.11-128.45,127.62-70.33-.48-127.59-57.6-127.55-127.24,0-70,57-126.16,127.92-126.25C1115.75,151.32,1172.54,207.13,1172.72,277.28Zm-128.08,78.83c43.51.15,79.53-35.18,79.58-78.07s-35.79-78.45-79.16-78.52c-43.83-.08-79,34.67-79.11,78.08S1000.83,356,1044.64,356.11Z"/></g></g></svg>