<svg xmlns="http://www.w3.org/2000/svg" viewBox="0 0 806.9 152.99"><defs><style>.cls-1{fill:#295254;}</style></defs><g id="Capa_2" data-name="Capa 2"><g id="Capa_1-2" data-name="Capa 1"><path class="cls-1" d="M333.25,47q-.22-10.35-6.67-16t-21.27-5.71q-11.62,0-18.38,3.45T280.16,41a15,15,0,0,0,4.08,10.47q4.08,4.43,14.17,7.45,14.61,4.53,27,8A106.43,106.43,0,0,1,347,75.21a38.22,38.22,0,0,1,14.28,12.61q5.15,7.77,5.16,20.94a43.25,43.25,0,0,1-4.1,19.31,38.47,38.47,0,0,1-11.33,13.8A50.83,50.83,0,0,1,334,150.19a79.91,79.91,0,0,1-21.75,2.8q-30.11,0-46.63-11.33c-11-7.56-16.72-25.75-17.12-42.58l29.11,6a20.88,20.88,0,0,0,2.68,10,20.38,20.38,0,0,0,6.66,6.91,33,33,0,0,0,9.68,4.1,46.5,46.5,0,0,0,11.51,1.4q15.67,0,22.46-5.07A16.06,16.06,0,0,0,337.36,109a12.72,12.72,0,0,0-1.94-7.23,17.13,17.13,0,0,0-5.49-5,37.92,37.92,0,0,0-8.5-3.67l-10.75-3.23q-14.88-4.36-25.87-8.25a77.65,77.65,0,0,1-18.27-8.95,33.28,33.28,0,0,1-11-12.2q-3.66-7.11-3.66-17.9a41.51,41.51,0,0,1,3.88-18.35,37.07,37.07,0,0,1,10.87-13.38,48.27,48.27,0,0,1,16.8-8.09A81.8,81.8,0,0,1,305.08,0,74.39,74.39,0,0,1,327.6,3.25a51.9,51.9,0,0,1,17.65,9.38,44.09,44.09,0,0,1,11.63,14.82,51.4,51.4,0,0,1,4.85,19.63Z"/><path class="cls-1" d="M401.1,103.09q.86,11.18,7.09,18a20.37,20.37,0,0,0,15.7,6.71,22.87,22.87,0,0,0,11.81-2.9,12.64,12.64,0,0,0,6.18-7.81h29.86a44.17,44.17,0,0,1-17.08,24.82A47.66,47.66,0,0,1,441,148.67a52.9,52.9,0,0,1-15.9,2.36q-26.42,0-39.74-14.61t-13.32-43a66.79,66.79,0,0,1,3.44-22.12,47.64,47.64,0,0,1,10-17,43.13,43.13,0,0,1,16-10.85,58.27,58.27,0,0,1,21.7-3.76,57.28,57.28,0,0,1,20.7,3.52,43.51,43.51,0,0,1,15.8,10.31,45.62,45.62,0,0,1,10.09,16.87,70,70,0,0,1,3.55,23.2c0,1.58,0,3.15-.11,4.73s-.18,3.15-.32,4.72Zm43.19-18q-1.71-21.93-21.06-21.93-20.22,0-21.72,21.93Z"/><path class="cls-1" d="M539,39.08H566.9v109H531.12l-73.67-109H489L538.9,113Z"/><path class="cls-1" d="M647.74,148.12a42.39,42.39,0,0,1-2.14-11.92q-3,6.42-11.53,10.57t-22.21,4.17q-18.57,0-26.7-8.23t-8.11-23.38a30.17,30.17,0,0,1,2.89-13.67,26,26,0,0,1,8.21-9.6,47.43,47.43,0,0,1,12.61-6.3,102.76,102.76,0,0,1,16.23-4q7.25-1.29,12.17-2a54,54,0,0,0,7.94-1.71,9.61,9.61,0,0,0,4.37-2.56,6.12,6.12,0,0,0,1.39-4.16q0-6.63-4.9-9.62t-12.61-3q-10,0-14.41,3.9a14.6,14.6,0,0,0-4.81,10.41H580.31a45.33,45.33,0,0,1,2.77-14.89,29.57,29.57,0,0,1,8-11.76,37,37,0,0,1,14.15-7.73Q614,40,626.81,40q12.59,0,21.25,2.78a33.8,33.8,0,0,1,13.9,8,30.52,30.52,0,0,1,7.58,13.05,61.28,61.28,0,0,1,2.36,17.65v66.55ZM643.06,97.9a11.32,11.32,0,0,1-5,2.47q-3.57,1-12.36,2.69-11.61,2.16-16.45,6.56T604.41,119q0,11.18,13.55,11.18a28.43,28.43,0,0,0,10.75-1.83,23.52,23.52,0,0,0,7.63-4.84,20.26,20.26,0,0,0,4.73-7,26.08,26.08,0,0,0,1.83-8.5Z"/><path class="cls-1" d="M683.9,148.08v-108h27V54.74q6.63-10.27,14.44-13a49.48,49.48,0,0,1,16.18-2.69h4.38V68.72a56.62,56.62,0,0,0-8.12-.65q-24.88,0-24.88,24.29v55.72Z"/><path class="cls-1" d="M784.9,148.08h-29V39.57h0V14.08h29v25h22v30h-22Z"/><path class="cls-1" d="M66.26,64.9,16,47.3c-1.78-.63-3.51-1.39-5.27-2.06C1.49,41.77-2.13,34.49,1.24,25.32a8.12,8.12,0,0,1,4.4-4.2C25.14,14,44.73,7.1,64.31.19c.7-.24,1.59,0,3.17,0,0,4.6.8,9.34-.29,13.58-.69,2.69-3.81,5.71-6.54,6.74-10.18,3.81-20.65,6.86-31,12.16C37.76,35.3,45.82,38,53.93,40.54,69,45.27,70.07,47.3,66.26,64.9Z"/><path class="cls-1" d="M148,87.74l50.27,17.61c1.77.62,3.51,1.38,5.28,2,9.22,3.48,12.84,10.76,9.5,19.92a8.07,8.07,0,0,1-4.4,4.21c-19.51,7.13-39.09,14-58.67,20.92-.71.26-1.59,0-3.17,0,0-4.59-.79-9.33.29-13.58.7-2.68,3.81-5.71,6.55-6.73,10.18-3.82,20.65-6.87,31-12.17-8.08-2.62-16.14-5.3-24.25-7.86C145.27,107.37,144.17,105.33,148,87.74Z"/><path class="cls-1" d="M62.16,147.36C68,139,73.09,130.78,79.05,123.29c4.21-5.31,10.3-5.35,16.15-2.38,6,3,5.92,8.54,4.71,14C96.54,150.26,80.34,156.13,62.16,147.36Z"/><rect class="cls-1" x="62.09" y="48.17" width="113.58" height="20.42" rx="9.51" transform="translate(22.58 149.3) rotate(-69.51)"/></g></g></svg>