<svg xmlns="http://www.w3.org/2000/svg" viewBox="0 0 1615.11 606.14"><defs><style>.cls-1{fill:#295254;}</style></defs><g id="Capa_2" data-name="Capa 2"><g id="Capa_1-2" data-name="Capa 1"><path class="cls-1" d="M248.75,144.14,124.36,72.07,0,144.14V72.07L124.37,0l124.4,72.07v72.07Z"/><path class="cls-1" d="M0,215.22H71.08V374.09c0,41.05,32.06,61.05,62.18,61.05,30.37,0,62.2-20.54,62.2-61.6V215.22h53.31V377.88c0,37.81-11.85,67-35.54,87s-53.31,29.73-89.4,29.73S58.14,484.88,35,464.87,0,416.79,0,379.49Zm818.65,184c-19.79,17.62-42.34,26.26-68,26.26-46.91,0-78.36-26.73-81.92-68.11H880s1.42-13.36,1.42-25.91c0-38.91-12.44-71.34-37.85-97.82-24.84-26.47-57.25-39.44-96.72-39.44-41.59,0-75.66,13-102.68,39.44-26.48,26.48-40,61.06-40,104.31v2.13c0,42.7,13.5,76.74,40,102.15s61.6,38.37,104.3,38.37c49.65,0,89.15-19.58,118.79-53.34ZM697.23,264.06c14.57-11.35,32.42-17.28,52.41-17.28,18.91,0,34.58,5.93,48.11,17.84,12.9,10.83,19.86,24.14,20.47,39.44h-145q3.15-23.71,24-40Zm786.93,253.23c-28.08,66.3-57.45,88.85-102.5,88.85h-31.22V552.83h24.82c15.23,0,29.4-5.73,42.89-36.87l13.5-31.18L1315.24,197.45h69.25L1465,399l82.72-201.58h67.37L1479.48,517.29ZM515.3,108.59V236.35c-23.48-19-60-30.33-95.34-30.33-42.06,0-77.58,13.38-106.59,40.66-28.43,26.78-42.65,60-42.65,100.13s14.22,73.36,42.65,100.66Q356.89,487.64,420,487.65c48.49,0,79.14-17.24,95.34-30.74v24.84h71.08V108.6H515.3Zm-24,294.5c-15.67,15.67-35.66,23.79-58.9,23.79s-42.15-8.12-57.82-23.79c-15.1-15.67-22.69-35.66-22.69-59.44s7.57-43.78,22.69-59.45c15.67-15.68,34.58-23.78,57.82-23.78s43.23,8.1,58.9,23.78c16.21,15.67,24.35,35.66,24.35,59.45S507.49,387.42,491.28,403.09Zm717-200.36c-47.64,0-72.4,19.76-89.37,38.8-6.78-12.94-25.9-38.8-70.54-38.8-37.75,0-60,19.07-71.09,32.65V215.22H906.22V481.75h71.07V325c0-36.75,23.83-63.22,55.57-63.22,32.35,0,51.05,23.24,51.05,60.52v159.4h53.3V325c0-37.28,23-63.22,56.11-63.22,32,0,50.51,23.24,50.51,60.5V481.72h71.07V311.22c-1.57-71-106.61-109.14-106.61-109.14Z"/></g></g></svg>