<svg xmlns="http://www.w3.org/2000/svg" viewBox="0 0 2741.24 874.98"><defs><style>.cls-1{fill:#295254;}.cls-2{fill:#162623;}</style></defs><g id="Capa_2" data-name="Capa 2"><g id="Capa_1-2" data-name="Capa 1"><path class="cls-1" d="M2522.55,797.52c-138.94,77.52-280.27,81-420,5.84C1977.7,736.18,1905.35,629,1883.66,488.42,1850.9,276.2,1988.52,69.09,2196.35,14.92c188.25-49.06,380.94,29.29,480,196.06,46.15,77.74,65.14,162.92,57.61,252.71-6.67,79.66-33.09,153-81.77,217.46-15.54-1.08-20.6-15.82-31-23.64-4.22-4.89-7.22-10.72-11.83-15.32-4.85-5.39-10.25-10.26-15.16-15.61-5.79-8.11-11.65-16.15-20.39-21.5-9.13-11.24-23.32-19.6-21.28-37.23,9.68-24.74,21.19-48.67,27.62-74.78,37.55-152.41-62.73-307.87-216.47-339.9C2233.26,126,2092.81,197,2043.24,331.58,1997,457.2,2045.4,593,2153.68,662.68c68.56,44.11,142.78,57.07,222.27,37.43,15.45-3.15,29.87-9.81,45.18-13.46,16.7,3.86,22.45,19.88,32.76,30.54,20.79,21.5,38.53,45.89,61.74,65.2C2520,786,2526,789.88,2522.55,797.52Z"/><path class="cls-1" d="M679.62,294.68c-1.27,82.09,4.5,172.14-2.93,261.66-7.66,92.21-33.14,178.6-105.55,243.72-43.77,39.36-95.91,60.06-153.37,68.87-72.23,11.08-143.6,8-212.44-17.76C105.14,813.76,47.43,738.3,19.22,637.68,5.77,589.7,1.05,540.37.61,491-.46,370.78.42,250.59,0,130.41c0-12.55,3.61-22.27,11-32.09C44.28,54.37,83.28,18.55,138.61,5c22.16-5.44,22.24-5.24,22.24,16.89q0,226.74.1,453.47c.06,35.88,1.91,71.72,8.06,107.17C185,674.88,241.56,725,335.45,728.26c48.05,1.68,94.13-5.67,130.34-41.85,28.86-28.84,40.3-65.83,47.52-104.52,5.81-31.16,6.68-62.73,6.67-94.34,0-154.87.36-309.75-.47-464.62-.1-18.5,5.16-22.58,22.68-22,39,1.37,78.1,1.24,117.11.05,16.05-.49,20.92,3.41,20.75,20.19C679.14,109.78,679.62,198.37,679.62,294.68Z"/><path class="cls-1" d="M1966.15,856.35h-18.66c-174.14,0-348.29-.24-522.43.35-15.46.06-19.24-3.72-19.21-19.19q.76-409.77.24-819.53c0-10.63-.91-18,14.62-18,177.86.6,355.72.38,533.58.41,2.86,0,5.71.29,12.48.66-36.51,32.9-67,66.43-90.44,105.77-4.74,7.94-10.87,15.57-13.41,24.21-6.64,22.57-21.35,26.24-43,25.87-78.68-1.37-157.4-.2-236.1-.89-13.82-.12-17.87,3.29-17.65,17.4q1.3,81.73,0,163.52c-.26,14.54,4.36,17.16,17.75,17,62-.7,123.95.26,185.9-.68,15.1-.23,16.1,4.22,14.73,17.53-4.06,39.47-5,79.21,1.7,118.51,2.15,12.55-1.37,14.52-12.7,14.44-63.21-.43-126.43.18-189.63-.5-13.54-.14-18,3-17.74,17.32.92,53.26.84,106.55,0,159.81-.21,13.76,3.18,17.74,17.38,17.62,83.66-.71,167.32-.36,251-.29,7.75,0,15-1.54,19.75,8.81,25.46,56,62.69,103.26,108.63,143.9C1963.78,851.16,1964.09,852.45,1966.15,856.35Z"/><path class="cls-1" d="M1121.49,500.72c0,112.75-.22,225.51.31,338.27.07,13.36-2.37,18.12-17,17.72q-63.16-1.69-126.42,0c-15.26.42-18.08-4.61-18-18.65q.64-333.63.25-667.26c0-27.55,4.44-24.27-24.79-24.4-59.5-.24-119-.46-178.5.21-12.92.14-16.89-3.28-16.6-16.4.86-38.39.7-76.82.08-115.22C740.58,4,743.08.09,755,.12q286.37.55,572.72,0c11.35,0,14.82,3.09,14.63,14.54-.66,39-.87,78.07.08,117.08.33,13.46-5.23,14.86-16.35,14.78-60.74-.42-121.49.47-182.21-.64-17.53-.32-23,3.69-22.83,22.11C1121.94,278.91,1121.48,389.82,1121.49,500.72Z"/><path class="cls-2" d="M2737.26,778.64c-18.71-19.65-37-39.7-55.47-59.59h0a128.06,128.06,0,0,0-28.31-30.8h0c-.44-2.37-.89-4.74-1.33-7.1L2624,654.71h0c-3.68-5.16-6.3-11.24-12.43-14.28-4-6-8.18-11.82-14.34-15.86h0c-5.43-7.84-10.74-15.79-19.25-20.77h0c-7.51-11.61-20.59-19.44-23.29-34.31l-13.92-7.05c-10.82-20-24.78-19.39-43.93-10.28-33.41,15.89-68.11,29.09-102.41,43.1-24.7,10.09-24.8,9.86-14,34.4,7.48,17.89,3.87,36.67,4.49,55.12h0l-7.26,18.67c15.77-1.69,30.23-7.36,44.21-14.51h0l100.75,108.6,55.87,43.67h0c5.83,8.66,13.07,12.64,23.64,8.19,43.85-18.47,87.82-36.65,131.61-55.26C2740.89,791.06,2744.56,786.31,2737.26,778.64Zm-353.51-152.9c-.07-.19-.15-.37-.22-.57a6.75,6.75,0,0,1,1,.12C2384.29,625.42,2384,625.58,2383.75,625.74Zm80.61,81.31c.27.93.59,1.83.9,2.72l-2.48-2.73Zm-80.84-81.88h0v0Z"/></g></g></svg>